<?xml version="1.0" encoding="UTF-8" standalone="no"?>
<svg width="210px" height="72px" viewBox="0 0 210 72" version="1.1" xmlns="http://www.w3.org/2000/svg" xmlns:xlink="http://www.w3.org/1999/xlink">
    <!-- Generator: Sketch 41 (35326) - http://www.bohemiancoding.com/sketch -->
    <title>Page 1</title>
    <desc>Created with Sketch.</desc>
    <defs>
        <polygon id="path-1" points="0 71.4363226 209.676322 71.4363226 209.676322 0.868786905 0 0.868786905"></polygon>
    </defs>
    <g id="z" stroke="none" stroke-width="1" fill="none" fill-rule="evenodd">
        <g id="21.1_Skadden_Foundation_home_V2" transform="translate(-135.000000, -4096.000000)">
            <g id="Group-13" transform="translate(0.000000, 4053.000000)">
                <g id="Group-11">
                    <g id="Page-1" transform="translate(135.000000, 43.000000)">
                        <path d="M6.87437603,22.8303155 C6.87437603,24.3120417 6.78759917,28.7998036 12.5738802,28.7998036 C16.2289215,28.7998036 18.5354504,27.0573631 18.5354504,24.3989464 C18.5354504,21.6101726 16.5777645,21.1304583 12.5738802,20.1718988 C5.0902438,18.2991012 1.00045041,16.0769464 1.00045041,10.629756 C1.00045041,5.44414881 4.69888017,0.868613095 13.4442521,0.868613095 C16.7079298,0.868613095 20.580781,1.60991071 22.9298306,4.57249405 C24.7148306,6.83897024 24.7148306,9.36616071 24.7148306,10.411625 L18.2308636,10.411625 C18.143219,9.32270833 17.7961116,5.61882738 13.1405331,5.61882738 C10.0070207,5.61882738 7.96255785,7.31781548 7.96255785,9.88845833 C7.96255785,12.8084583 10.268219,13.330756 14.7936322,14.463994 C20.2328058,15.7710417 25.5843347,17.2527679 25.5843347,23.3969345 C25.5843347,29.0613869 20.8853678,33.6369226 12.1825165,33.6369226 C0.130946281,33.6369226 0.0441694215,25.8806726 -8.67768613e-05,22.8303155 L6.87437603,22.8303155 Z" id="Fill-1" fill="#FEFEFE"></path>
                        <polygon id="Fill-4" fill="#FEFEFE" points="27.8889545 1.39186667 34.2844091 1.39186667 34.2844091 19.9547238 40.941062 10.7602 48.2077562 10.7602 40.6798636 20.3466643 48.6867645 32.8957119 41.0712273 32.8957119 34.2844091 20.9132833 34.2844091 32.8957119 27.8889545 32.8957119"></polygon>
                        <path d="M54.7338099,26.0986298 C54.7338099,27.580356 55.7343471,29.2358917 57.8655868,29.2358917 C59.0414132,29.2358917 59.9976942,28.6692726 60.6086033,27.9722964 C61.738438,26.577475 61.8260826,24.8784869 61.8260826,22.525106 C57.6929008,22.1766179 54.7338099,23.4845345 54.7338099,26.0986298 L54.7338099,26.0986298 Z M62.6521983,32.8963202 C62.4352562,31.5458202 62.4352562,30.5429393 62.4352562,29.8894155 C59.9976942,33.4186179 57.0828595,33.4186179 55.8653802,33.4186179 C52.6893471,33.4186179 51.2523223,32.5043798 50.3828182,31.6761774 C49.0768264,30.3691298 48.4676529,28.5823679 48.4676529,26.8390583 C48.4676529,25.0966179 49.0768264,21.8715821 53.1240992,19.9979155 C55.8219917,18.7777726 59.6939752,18.7777726 61.8260826,18.7777726 C61.8260826,17.3403679 61.7826942,16.6433917 61.5214959,15.8586417 C60.9557107,14.2465583 59.2592231,14.0284274 58.6500496,14.0284274 C57.7354215,14.0284274 56.7782727,14.4203679 56.2133554,15.2485702 C55.7343471,15.9889988 55.7343471,16.685975 55.7343471,17.2091417 L49.4256694,17.2091417 C49.4699256,16.0324512 49.6000909,13.6799393 51.9048843,12.0244036 C53.9068264,10.5861298 56.4745537,10.2376417 58.562405,10.2376417 C60.3899256,10.2376417 64.2193884,10.5426774 66.3948843,13.0698679 C67.8744298,14.8557607 67.9169504,17.470725 67.9169504,18.4727369 L67.9603388,27.3187726 C67.9603388,29.1924393 68.0913719,31.066106 68.4827355,32.8963202 L62.6521983,32.8963202 Z" id="Fill-6" fill="#FEFEFE"></path>
                        <path d="M80.751595,29.1487262 C82.6225041,29.1487262 84.145438,28.0154881 84.8413884,26.6649881 C85.7985372,24.8347738 85.8861818,22.5691667 85.8861818,21.479381 C85.8861818,17.1654286 84.0152727,14.8129167 81.0995702,14.8129167 C76.7928347,14.8129167 76.3138264,19.9976548 76.3138264,22.2206786 C76.3138264,25.8802381 77.5321736,29.1487262 80.751595,29.1487262 L80.751595,29.1487262 Z M85.6683719,1.43566667 L92.1514711,1.43566667 L92.1514711,29.3234048 C92.1514711,30.6304524 92.2382479,32.0678571 92.3258926,32.8960595 L85.7985372,32.8960595 L85.6249835,29.7153452 C85.1902314,30.4992262 84.7546116,31.3274286 83.4060992,32.1990833 C81.7955207,33.2445476 80.0990331,33.3314524 79.1418843,33.3314524 C73.2679587,33.3314524 69.7873388,29.2790833 69.7873388,22.3944881 C69.7873388,15.1179524 73.7469669,10.585869 79.4907273,10.585869 C83.4494876,10.585869 85.1025868,12.8080238 85.6683719,13.5927738 L85.6683719,1.43566667 Z" id="Fill-8" fill="#FEFEFE"></path>
                        <path d="M104.811868,29.1487262 C106.682777,29.1487262 108.204843,28.0154881 108.901661,26.6649881 C109.85881,24.8347738 109.945587,22.5691667 109.945587,21.479381 C109.945587,17.1654286 108.074678,14.8129167 105.158975,14.8129167 C100.853107,14.8129167 100.374099,19.9976548 100.374099,22.2206786 C100.374099,25.8802381 101.591579,29.1487262 104.811868,29.1487262 L104.811868,29.1487262 Z M109.728645,1.43566667 L116.211744,1.43566667 L116.211744,29.3234048 C116.211744,30.6304524 116.297653,32.0678571 116.385298,32.8960595 L109.85881,32.8960595 L109.684388,29.7153452 C109.249636,30.4992262 108.814884,31.3274286 107.466372,32.1990833 C105.855793,33.2445476 104.159306,33.3314524 103.202157,33.3314524 C97.3273636,33.3314524 93.8467438,29.2790833 93.8467438,22.3944881 C93.8467438,15.1179524 97.8072397,10.585869 103.550132,10.585869 C107.508893,10.585869 109.16286,12.8080238 109.728645,13.5927738 L109.728645,1.43566667 Z" id="Fill-10" fill="#FEFEFE"></path>
                        <path d="M132.613525,19.4750964 C132.613525,18.4730845 132.52588,14.5510726 128.784062,14.5510726 C125.956872,14.5510726 124.781913,16.9044536 124.65088,19.4750964 L132.613525,19.4750964 Z M124.43307,23.5274655 C124.43307,24.9657393 124.43307,29.4100488 128.914227,29.4100488 C130.524806,29.4100488 132.134517,28.7999774 132.74369,26.3596917 L138.617616,26.3596917 C138.530839,27.405156 138.313029,29.2796917 136.529764,31.1533583 C134.919186,32.8523464 132.048607,33.7240012 128.828318,33.7240012 C126.956541,33.7240012 123.389145,33.3755131 121.083483,30.9786798 C119.081541,28.8877512 118.255426,25.9242988 118.255426,22.3942274 C118.255426,18.8215726 119.12493,14.5510726 122.82336,11.9804298 C124.520715,10.8471917 126.609434,10.1502155 129.00274,10.1502155 C132.134517,10.1502155 135.877202,11.3703583 137.878277,15.4661798 C139.356955,18.4730845 139.270178,21.6972512 139.183401,23.5274655 L124.43307,23.5274655 Z" id="Fill-12" fill="#FEFEFE"></path>
                        <path d="M141.157314,14.8128298 C141.157314,14.725056 141.157314,12.3290917 141.027149,10.8039131 L147.205661,10.8039131 L147.379215,14.1158536 C147.988388,13.1129726 149.729132,10.2807464 154.515744,10.2807464 C158.821612,10.2807464 160.65,12.8948417 161.214917,14.4200202 C161.694793,15.7713893 161.824959,16.9046274 161.824959,21.0004488 L161.824959,32.8959726 L155.254215,32.8959726 L155.254215,19.2136869 C155.254215,18.2985798 155.254215,17.5138298 154.907107,16.8168536 C154.428099,15.858294 153.427562,14.9431869 151.773595,14.9431869 C150.381694,14.9431869 149.119959,15.5967107 148.424008,16.643044 C148.032645,17.208794 147.640413,18.2985798 147.640413,19.9975679 L147.640413,32.8959726 L141.157314,32.8959726 L141.157314,14.8128298 Z" id="Fill-14" fill="#FEFEFE"></path>
                        <polygon id="Fill-16" fill="#FEFEFE" points="0.284714876 39.1916143 20.5601281 39.1916143 20.5601281 44.2459952 7.02814463 44.2459952 7.02814463 52.0022452 19.6463678 52.0022452 19.6463678 57.2313048 7.02814463 57.2313048 7.02814463 70.6520071 0.284714876 70.6520071"></polygon>
                        <path d="M32.9599339,66.9484738 C35.7879917,66.9484738 37.7022893,65.2494857 37.7022893,59.4103548 C37.7022893,56.4912238 37.1365041,52.4379857 32.8722893,52.4379857 C28.1733223,52.4379857 28.1299339,57.8843071 28.1299339,59.8892 C28.1299339,64.8132238 29.7839008,66.9484738 32.9599339,66.9484738 M32.8722893,48.1240333 C40.8349339,48.1240333 44.2721653,53.5277714 44.2721653,59.6719381 C44.2721653,65.8586881 40.7047686,71.4362357 32.742124,71.4362357 C26.4768347,71.4362357 21.5158017,67.5576762 21.5158017,59.8457476 C21.5158017,54.5297833 24.214562,48.1240333 32.8722893,48.1240333" id="Fill-18" fill="#FEFEFE"></path>
                        <path d="M52.755905,48.6475476 L52.755905,61.7632143 C52.755905,63.6803333 52.755905,66.5994643 56.1931364,66.5994643 C60.327186,66.5994643 60.327186,63.5065238 60.327186,59.7583214 L60.327186,48.6475476 L66.9404504,48.6475476 L66.9404504,63.1571667 C67.0263595,67.907381 67.0706157,68.473131 67.0706157,69.03975 C67.1140041,69.6498214 67.1573926,70.0417619 67.2441694,70.6518333 L60.9797479,70.6518333 L60.761938,67.7327024 C60.109376,68.6912619 58.4554091,71.2193214 54.2779711,71.2193214 C51.3206157,71.2193214 48.8830537,69.8679524 47.6647066,68.255 C46.2294174,66.4691071 46.2294174,63.41875 46.2294174,62.3298333 L46.2294174,48.6475476 L52.755905,48.6475476 Z" id="Fill-20" fill="#FEFEFE"></path>
                        <path d="M70.4629835,52.5685167 C70.4629835,52.4816119 70.4629835,50.0856476 70.3328182,48.5596 L76.5113306,48.5596 L76.6848843,51.8715405 C77.2940579,50.8695286 79.0348017,48.0373024 83.8214132,48.0373024 C88.127281,48.0373024 89.9556694,50.6513976 90.5205868,52.1765762 C91.0004628,53.5279452 91.1306281,54.6603143 91.1306281,58.7561357 L91.1306281,70.6525286 L84.5598843,70.6525286 L84.5598843,56.9693738 C84.5598843,56.0551357 84.5598843,55.2703857 84.2127769,54.5734095 C83.7337686,53.613981 82.7332314,52.6988738 81.0792645,52.6988738 C79.6873636,52.6988738 78.4256281,53.3523976 77.7296777,54.398731 C77.338314,54.96535 76.9460826,56.0551357 76.9460826,57.7541238 L76.9460826,70.6525286 L70.4629835,70.6525286 L70.4629835,52.5685167 Z" id="Fill-22" fill="#FEFEFE"></path>
                        <path d="M103.92119,66.9044131 C105.791231,66.9044131 107.315033,65.772044 108.010983,64.421544 C108.967264,62.5913298 109.055777,60.3257226 109.055777,59.2359369 C109.055777,54.9219845 107.184868,52.5686036 104.269165,52.5686036 C99.961562,52.5686036 99.4834215,57.7542107 99.4834215,59.9763655 C99.4834215,63.636794 100.701769,66.9044131 103.92119,66.9044131 L103.92119,66.9044131 Z M108.837099,39.1913536 L115.321066,39.1913536 L115.321066,67.0790917 C115.321066,68.3861393 115.407843,69.823544 115.49462,70.6517464 L108.967264,70.6517464 L108.794579,67.4710321 C108.358959,68.2557821 107.923339,69.0839845 106.575694,69.9547702 C104.965116,71.0011036 103.26776,71.0880083 102.311479,71.0880083 C96.4375537,71.0880083 92.9560661,67.0347702 92.9560661,60.151044 C92.9560661,52.8736393 96.9156942,48.342425 102.659455,48.342425 C106.618215,48.342425 108.272182,50.5637107 108.837099,51.3484607 L108.837099,39.1913536 Z" id="Fill-24" fill="#FEFEFE"></path>
                        <path d="M123.499438,63.8542298 C123.499438,65.335956 124.499975,66.9914917 126.631215,66.9914917 C127.807041,66.9914917 128.763322,66.4257417 129.374231,65.7278964 C130.504066,64.333944 130.591711,62.634956 130.591711,60.281575 C126.458529,59.9330869 123.499438,61.2401345 123.499438,63.8542298 L123.499438,63.8542298 Z M131.417826,70.6519202 C131.200884,69.3014202 131.200884,68.2994083 131.200884,67.6458845 C128.763322,71.1750869 125.848488,71.1750869 124.631008,71.1750869 C121.454975,71.1750869 120.01795,70.2599798 119.148446,69.4317774 C117.842455,68.1247298 117.233281,66.3379679 117.233281,64.5955274 C117.233281,62.8530869 117.842455,59.6280512 121.889727,57.7535155 C124.58762,56.5333726 128.459603,56.5333726 130.591711,56.5333726 C130.591711,55.0959679 130.548322,54.3989917 130.287124,53.6142417 C129.721339,52.0021583 128.024851,51.7840274 127.415678,51.7840274 C126.50105,51.7840274 125.543901,52.1759679 124.978983,53.0050393 C124.499975,53.7445988 124.499975,54.442444 124.499975,54.9647417 L118.191298,54.9647417 C118.235554,53.7889202 118.365719,51.4364083 120.670512,49.7800036 C122.672455,48.3417298 125.240182,47.9932417 127.328033,47.9932417 C129.155554,47.9932417 132.985017,48.2982774 135.160512,50.8254679 C136.640058,52.6122298 136.682579,55.226325 136.682579,56.229206 L136.725967,65.0743726 C136.725967,66.9489083 136.857,68.822575 137.248364,70.6519202 L131.417826,70.6519202 Z" id="Fill-26" fill="#FEFEFE"></path>
                        <path d="M153.264508,70.3466238 C151.175789,70.9132429 149.30488,71.044469 148.260087,71.044469 C141.776988,71.044469 141.776988,66.9486476 141.776988,65.1184333 L141.776988,53.048231 L137.556161,53.048231 L137.556161,48.7786 L141.776988,48.7786 L141.776988,44.4637786 L148.17331,42.1112667 L148.17331,48.7786 L153.394674,48.7786 L153.394674,53.048231 L148.17331,53.048231 L148.17331,62.9831833 C148.217566,64.9880762 148.217566,66.2508024 151.088145,66.2508024 C152.046161,66.2508024 152.480913,66.20735 153.264508,66.1204452 L153.264508,70.3466238 Z" id="Fill-28" fill="#FEFEFE"></path>
                        <mask id="mask-2" fill="white">
                            <use xlink:href="#path-1"></use>
                        </mask>
                        <g id="Clip-31"></g>
                        <path d="M155.569215,70.6524417 L162.008058,70.6524417 L162.008058,48.6038345 L155.569215,48.6038345 L155.569215,70.6524417 Z M155.350537,44.8121798 L162.225868,44.8121798 L162.225868,39.1911798 L155.350537,39.1911798 L155.350537,44.8121798 Z" id="Fill-30" fill="#FEFEFE" mask="url(#mask-2)"></path>
                        <path d="M175.522339,66.9484738 C178.350397,66.9484738 180.265562,65.2494857 180.265562,59.4103548 C180.265562,56.4912238 179.698909,52.4379857 175.434694,52.4379857 C170.735727,52.4379857 170.693207,57.8843071 170.693207,59.8892 C170.693207,64.8132238 172.346306,66.9484738 175.522339,66.9484738 M175.434694,48.1240333 C183.397339,48.1240333 186.83457,53.5277714 186.83457,59.6719381 C186.83457,65.8586881 183.267174,71.4362357 175.304529,71.4362357 C169.038372,71.4362357 164.079074,67.5576762 164.079074,59.8457476 C164.079074,54.5297833 166.776967,48.1240333 175.434694,48.1240333" id="Fill-32" fill="#FEFEFE" mask="url(#mask-2)"></path>
                        <path d="M189.009112,52.5685167 C189.009112,52.4816119 189.009112,50.0856476 188.878946,48.5596 L195.057459,48.5596 L195.231012,51.8715405 C195.840186,50.8695286 197.58093,48.0373024 202.366674,48.0373024 C206.674277,48.0373024 208.501798,50.6513976 209.067583,52.1765762 C209.545723,53.5279452 209.675888,54.6603143 209.675888,58.7561357 L209.675888,70.6525286 L203.10688,70.6525286 L203.10688,56.9693738 C203.10688,56.0551357 203.10688,55.2703857 202.758037,54.5734095 C202.279897,53.613981 201.27936,52.6988738 199.625393,52.6988738 C198.233492,52.6988738 196.971756,53.3523976 196.274938,54.398731 C195.883574,54.96535 195.492211,56.0551357 195.492211,57.7541238 L195.492211,70.6525286 L189.009112,70.6525286 L189.009112,52.5685167 Z" id="Fill-33" fill="#FEFEFE" mask="url(#mask-2)"></path>
                    </g>
                </g>
            </g>
        </g>
    </g>
</svg>